<?xml version="1.0" encoding="iso-8859-1"?>
<!-- Generator: Adobe Illustrator 19.0.0, SVG Export Plug-In . SVG Version: 6.00 Build 0)  -->
<svg version="1.1" id="Layer_1" xmlns="http://www.w3.org/2000/svg" xmlns:xlink="http://www.w3.org/1999/xlink" x="0px" y="0px"
	 viewBox="0 0 508 508" style="enable-background:new 0 0 508 508;" xml:space="preserve">
<circle style="fill:#90DFAA;" cx="254" cy="254" r="254"/>
<path style="fill:#FFFFFF;" d="M421.2,255.6c0-10.4-8.4-19.2-19.2-19.2h-7.6c10.4,0,19.2-8.4,19.2-19.2c0-10.4-8.4-19.2-19.2-19.2
	h-65.6c-3.6-0.8-6-4.8-5.2-8.4c3.2-14.4,17.6-26,24.8-39.6c7.6-14.8,7.2-33.6-1.6-47.6c-3.6-6-8.4-10.8-14-14.8
	c-4.8-2.8-10.8-0.8-12.4,4.8c-7.6,29.2-30.8,52.4-53.2,73.6c-11.6,11.2-48.8,28-62.8,36v149.2h178.4c10.4,0,19.2-8.4,19.2-19.2
	c0-10.4-8.4-19.2-19.2-19.2H394c10.4,0,19.2-8.4,19.2-19.2c0-10.4-8.4-19.2-19.2-19.2h7.6C412.8,274.8,421.2,266.4,421.2,255.6z"/>
<path style="fill:#FF7058;" d="M192,186h-89.2v179.6H192c7.2,0,12.8-6,12.8-13.6V199.2C204.8,192,199.2,186,192,186z"/>
<circle style="fill:#324A5E;" cx="153.6" cy="334.8" r="10.4"/>
<g>
</g>
<g>
</g>
<g>
</g>
<g>
</g>
<g>
</g>
<g>
</g>
<g>
</g>
<g>
</g>
<g>
</g>
<g>
</g>
<g>
</g>
<g>
</g>
<g>
</g>
<g>
</g>
<g>
</g>
</svg>
